<svg width="146" height="63" viewBox="0 0 146 63" fill="none" xmlns="http://www.w3.org/2000/svg">
<path d="M0.99993 29.2497C24.8427 28.0421 51.4607 29.7149 70.1119 45.8396C73.0203 48.354 79.0224 55.4036 74.544 59.1986C70.6137 62.529 61.2831 62.6121 57.4517 59.6417C47.4796 51.9106 37.3194 38.9593 51.2589 28.8199C66.4339 17.7817 90.5165 13.6466 108.872 11.866C117.776 11.0023 128.552 10.6503 137.323 12.3271C143.145 13.4403 138.117 14.1777 134.547 15.46C129.469 17.2838 117.743 21.4952 128.985 17.4574C133.554 15.8167 138.799 14.7228 143.306 14.3905C148.126 14.0352 139.684 11.4025 138.692 10.7081C135.567 8.51899 131.508 4.62172 130.207 0.999975" stroke="#1C1C1C" stroke-width="2" stroke-linecap="round"/>
</svg>
