<svg width="52" height="52" viewBox="0 0 52 52" fill="none" xmlns="http://www.w3.org/2000/svg">
<g opacity="0.51">
<path d="M31.4947 46.9865C31.577 47.1917 31.7201 47.3667 31.9047 47.4882C32.0894 47.6097 32.3068 47.6718 32.5278 47.6661C32.7488 47.6604 32.9627 47.5873 33.141 47.4566C33.3192 47.3258 33.4531 47.1436 33.5248 46.9345L47.6082 5.76787C47.6775 5.57589 47.6907 5.36813 47.6463 5.1689C47.6019 4.96968 47.5016 4.78722 47.3573 4.64289C47.213 4.49855 47.0305 4.39831 46.8313 4.35389C46.6321 4.30946 46.4243 4.32269 46.2323 4.39204L5.06565 18.4754C4.85656 18.5471 4.67441 18.681 4.54364 18.8592C4.41288 19.0375 4.33976 19.2514 4.3341 19.4724C4.32844 19.6934 4.39051 19.9108 4.51198 20.0954C4.63345 20.2801 4.80851 20.4232 5.01365 20.5055L22.1953 27.3955C22.7385 27.613 23.232 27.9382 23.646 28.3515C24.0601 28.7649 24.3862 29.2578 24.6047 29.8005L31.4947 46.9865Z" fill="white" stroke="white" stroke-width="2" stroke-linecap="round" stroke-linejoin="round"/>
<path d="M47.3503 4.65234L23.647 28.3535" stroke="#00141C" stroke-width="2" stroke-linecap="round" stroke-linejoin="round"/>
</g>
</svg>
